####
#
# OBJ File Generated by Meshlab
#
####
# Object cylinder2.obj
#
# Vertices: 34
# Faces: 64
#
####
vn -0.076506 -0.824908 0.560066
v -0.016180 -0.200212 1.000000
vn 0.824908 -0.076506 0.560066
v 0.200212 -0.016180 1.000000
vn -0.826971 0.057451 0.559302
v -0.200212 0.016180 1.000000
vn -0.452357 0.832295 -0.320403
v -0.091566 0.178781 -1.000000
vn 0.656608 0.255150 -0.709764
v 0.184776 0.076537 -1.000000
vn 0.840220 0.298659 0.452586
v 0.191164 0.061670 1.000000
vn 0.732838 -0.386361 0.560066
v 0.178781 -0.091566 1.000000
vn 0.386361 0.732838 0.560066
v 0.091566 0.178781 1.000000
vn 0.244997 -0.791393 0.560066
v 0.061670 -0.191164 1.000000
vn -0.813240 0.170083 -0.556518
v -0.196157 0.039018 -1.000000
vn -0.824553 -0.088149 -0.558876
v -0.200212 -0.016180 -1.000000
vn -0.529200 -0.637396 -0.560066
v -0.130131 -0.153012 -1.000000
vn -0.708072 0.661076 0.248216
v -0.146655 0.139534 1.000000
vn 0.076506 -0.824908 -0.560066
v 0.016180 -0.200212 -1.000000
vn 0.280130 0.904883 -0.320490
v 0.061670 0.191164 -1.000000
vn 0.087477 0.943204 0.320490
v 0.016180 0.200212 1.000000
vn -0.732838 -0.386361 -0.560066
v -0.178781 -0.091566 -1.000000
vn -0.637396 -0.529200 0.560066
v -0.153012 -0.130131 1.000000
vn -0.527821 0.461127 -0.713279
v -0.153012 0.130131 -1.000000
vn 0.637396 -0.529200 -0.560066
v 0.153012 -0.130131 -1.000000
vn 0.699338 0.448580 -0.556509
v 0.166294 0.111114 -1.000000
vn -0.244997 -0.791393 -0.560066
v -0.061670 -0.191164 -1.000000
vn -0.016804 0.181184 -0.983306
v -0.016180 0.200212 -1.000000
vn 0.529200 -0.637396 0.560066
v 0.130131 -0.153012 1.000000
vn 0.629787 0.538288 0.560013
v 0.153012 0.130131 1.000000
vn 0.826037 0.069254 -0.559345
v 0.200212 0.016180 -1.000000
vn 0.791393 -0.244997 -0.560066
v 0.191164 -0.061670 -1.000000
vn -0.063459 0.196349 0.978479
v -0.061670 0.191164 1.000000
vn -0.386361 -0.732838 0.560066
v -0.091566 -0.178781 1.000000
vn -0.744763 0.367219 -0.557206
v -0.184776 0.076537 -1.000000
vn -0.775771 0.294481 0.558087
v -0.184776 0.076537 1.000000
vn -0.791393 -0.244997 0.560066
v -0.191164 -0.061670 1.000000
vn 0.386361 -0.732838 -0.560066
v 0.091566 -0.178781 -1.000000
vn 0.520716 0.645378 -0.558876
v 0.130131 0.153012 -1.000000
# 34 vertices, 0 vertices normals

f 2//2 26//26 6//6
f 2//2 6//6 28//28
f 26//26 23//23 5//5
f 26//26 5//5 6//6
f 5//5 23//23 21//21
f 5//5 21//21 6//6
f 6//6 21//21 25//25
f 6//6 25//25 28//28
f 21//21 23//23 34//34
f 21//21 34//34 25//25
f 25//25 34//34 8//8
f 25//25 8//8 28//28
f 34//34 23//23 15//15
f 34//34 15//15 8//8
f 8//8 15//15 16//16
f 8//8 16//16 28//28
f 15//15 23//23 16//16
f 16//16 23//23 28//28
f 23//23 4//4 28//28
f 28//28 4//4 13//13
f 4//4 23//23 19//19
f 4//4 19//19 13//13
f 19//19 23//23 30//30
f 19//19 30//30 13//13
f 13//13 30//30 31//31
f 13//13 31//31 28//28
f 30//30 23//23 10//10
f 30//30 10//10 31//31
f 31//31 10//10 3//3
f 31//31 3//3 28//28
f 10//10 23//23 11//11
f 10//10 11//11 3//3
f 3//3 11//11 32//32
f 3//3 32//32 28//28
f 11//11 23//23 17//17
f 11//11 17//17 32//32
f 32//32 17//17 18//18
f 32//32 18//18 28//28
f 17//17 23//23 12//12
f 17//17 12//12 18//18
f 18//18 12//12 29//29
f 18//18 29//29 28//28
f 12//12 23//23 22//22
f 12//12 22//22 29//29
f 29//29 22//22 1//1
f 29//29 1//1 28//28
f 22//22 23//23 14//14
f 22//22 14//14 1//1
f 1//1 14//14 9//9
f 1//1 9//9 28//28
f 14//14 23//23 33//33
f 14//14 33//33 9//9
f 9//9 33//33 24//24
f 9//9 24//24 28//28
f 33//33 23//23 20//20
f 33//33 20//20 24//24
f 24//24 20//20 7//7
f 24//24 7//7 28//28
f 20//20 23//23 27//27
f 20//20 27//27 7//7
f 7//7 27//27 2//2
f 7//7 2//2 28//28
f 27//27 23//23 26//26
f 27//27 26//26 2//2
# 64 faces, 0 coords texture

# End of File
